<svg width="40" height="34" viewBox="0 0 40 34" fill="none" xmlns="http://www.w3.org/2000/svg">
<path fill-rule="evenodd" clip-rule="evenodd" d="M12.7379 0.482873C13.8248 -0.161036 15.5872 -0.160879 16.674 0.482873L27.4437 6.86298C28.5307 7.50689 29.4118 9.06663 29.4118 10.3426V23.1389C29.4118 24.4168 28.5305 25.9747 27.4437 26.6184L16.674 32.9985C15.587 33.6425 13.8245 33.6425 12.7379 32.9985L1.96805 26.6184C0.88112 25.9745 0 24.4148 0 23.1389V10.3426C0 9.06475 0.881329 7.50678 1.96805 6.86298L12.7379 0.482873Z" fill="#2977EA" fill-opacity="0.33"/>
<path fill-rule="evenodd" clip-rule="evenodd" d="M27.2618 32.9985C26.1748 33.6425 24.4125 33.6425 23.3257 32.9985L12.5559 26.6184C11.469 25.9745 10.5879 24.4148 10.5879 23.1389V10.3426C10.5879 9.06475 11.4692 7.50678 12.5559 6.86298L23.3257 0.482873C24.4127 -0.161036 26.1751 -0.160879 27.2618 0.482873L38.0316 6.86298C39.1186 7.50689 39.9997 9.06663 39.9997 10.3426V23.1389C39.9997 24.4168 39.1183 25.9747 38.0316 26.6184L27.2618 32.9985Z" fill="#2977EA" fill-opacity="0.66"/>
<path fill-rule="evenodd" clip-rule="evenodd" d="M20.0336 2.37012L27.4136 6.68817C28.517 7.3338 29.4114 8.8977 29.4114 10.1771V23.0076C29.4114 24.2889 28.5168 25.851 27.4136 26.4964L20.0336 30.8146L12.6003 26.4964C11.4888 25.8508 10.5879 24.2869 10.5879 23.0076V10.1771C10.5879 8.89587 11.4891 7.33369 12.6003 6.68817L20.0336 2.37012Z" fill="#2977EA"/>
</svg>
